<svg width="35" height="27" viewBox="0 0 35 27" fill="none" xmlns="http://www.w3.org/2000/svg">
<rect width="35" height="21.74" rx="0.3" fill="#DFDFDF"/>
<path d="M13.9719 17.0717C13.9883 16.9194 14.1169 16.8039 14.2702 16.8039H20.5649C20.7149 16.8039 20.8418 16.9147 20.8621 17.0633L22.1274 26.3356C22.152 26.5157 22.012 26.6762 21.8302 26.6762H13.2689C13.0905 26.6762 12.9515 26.5213 12.9707 26.3439L13.9719 17.0717Z" fill="#DFDFDF"/>
<rect x="1.19565" y="0.84021" width="32.6087" height="18.9043" rx="0.3" fill="#BCD1FB"/>
<path d="M19.1673 7.94777C18.942 7.73015 18.942 7.37731 19.1673 7.15968C19.3925 6.94205 19.7577 6.94205 19.983 7.15968L23.1328 10.2029C23.358 10.4205 23.358 10.7734 23.1328 10.991C22.9075 11.2086 22.5423 11.2086 22.3171 10.991L19.1673 7.94777Z" fill="#685FD3"/>
<path d="M23.1328 10.957C23.358 10.7394 23.358 10.3865 23.1328 10.1689C22.9075 9.95129 22.5423 9.95129 22.3171 10.1689L19.1673 13.2121C18.942 13.4298 18.942 13.7826 19.1673 14.0002C19.3925 14.2179 19.7577 14.2179 19.983 14.0002L23.1328 10.957Z" fill="#685FD3"/>
<path d="M15.1327 13.2121C15.358 13.4298 15.358 13.7826 15.1327 14.0002C14.9075 14.2179 14.5423 14.2179 14.3171 14.0002L11.1673 10.957C10.942 10.7394 10.942 10.3865 11.1673 10.1689C11.3925 9.95129 11.7577 9.95129 11.9829 10.1689L15.1327 13.2121Z" fill="#F79797"/>
<path d="M11.1672 10.2029C10.942 10.4205 10.942 10.7734 11.1672 10.991C11.3925 11.2086 11.7577 11.2086 11.9829 10.991L15.1327 7.94778C15.358 7.73015 15.358 7.37731 15.1327 7.15969C14.9075 6.94206 14.5423 6.94206 14.317 7.15969L11.1672 10.2029Z" fill="#F79797"/>
<rect x="16.0034" y="5.08606" width="0.576346" height="10.0389" rx="0.288173" transform="rotate(-8.38 16.0034 5.08606)" fill="#808080"/>
<rect x="27.8451" y="17.979" width="5.15486" height="9.021" rx="0.5" fill="#3C3C3C"/>
<rect x="28.3069" y="18.3748" width="4.23131" height="8.22955" rx="0.2" fill="#BCD1FB"/>
<rect x="29.6123" y="18.174" width="1.62051" height="0.401508" rx="0.2" fill="#3C3C3C"/>
</svg>
