<svg width="25" height="25" viewBox="0 0 25 25" fill="none" xmlns="http://www.w3.org/2000/svg">
<path d="M12.1285 6.46021C10.4941 6.46021 8.92657 7.10847 7.77086 8.26239C6.61515 9.4163 5.96588 10.9813 5.96588 12.6132C5.96588 14.2451 6.61515 15.8102 7.77086 16.9641C8.92657 18.118 10.4941 18.7663 12.1285 18.7663C13.7629 18.7663 15.3304 18.118 16.4861 16.9641C17.6418 15.8102 18.2911 14.2451 18.2911 12.6132C18.2911 10.9813 17.6418 9.4163 16.4861 8.26239C15.3304 7.10847 13.7629 6.46021 12.1285 6.46021V6.46021ZM12.1285 16.6092C11.0667 16.6092 10.0483 16.1881 9.29753 15.4384C8.54672 14.6888 8.12492 13.6721 8.12492 12.6119C8.12492 11.5517 8.54672 10.535 9.29753 9.78536C10.0483 9.03571 11.0667 8.61456 12.1285 8.61456C13.1903 8.61456 14.2086 9.03571 14.9594 9.78536C15.7102 10.535 16.132 11.5517 16.132 12.6119C16.132 13.6721 15.7102 14.6888 14.9594 15.4384C14.2086 16.1881 13.1903 16.6092 12.1285 16.6092V16.6092Z" fill="white"/>
<path d="M18.5349 7.66824C19.3284 7.66824 19.9716 7.02601 19.9716 6.23378C19.9716 5.44155 19.3284 4.79932 18.5349 4.79932C17.7415 4.79932 17.0983 5.44155 17.0983 6.23378C17.0983 7.02601 17.7415 7.66824 18.5349 7.66824Z" fill="white"/>
<path d="M23.5021 4.7754C23.1936 3.9799 22.7221 3.25748 22.1178 2.65439C21.5136 2.0513 20.7898 1.58082 19.993 1.27307C19.0605 0.923581 18.0754 0.734604 17.0796 0.71419C15.7962 0.658302 15.3897 0.642334 12.1351 0.642334C8.8806 0.642334 8.46345 0.642334 7.19068 0.71419C6.19564 0.73356 5.21124 0.922575 4.27998 1.27307C3.48291 1.58046 2.759 2.05081 2.1547 2.65395C1.55039 3.25709 1.07904 3.97969 0.770869 4.7754C0.420765 5.70635 0.231928 6.69002 0.212451 7.68425C0.155143 8.96435 0.137817 9.37021 0.137817 12.621C0.137817 15.8705 0.137817 16.2844 0.212451 17.5578C0.232442 18.5532 0.420358 19.5352 0.770869 20.468C1.0799 21.2634 1.55172 21.9857 2.15617 22.5888C2.76062 23.1919 3.48441 23.6624 4.28131 23.9703C5.21081 24.3339 6.19562 24.5364 7.19335 24.5691C8.47678 24.625 8.88326 24.6423 12.1378 24.6423C15.3924 24.6423 15.8095 24.6423 17.0823 24.5691C18.078 24.5489 19.063 24.3604 19.9957 24.0116C20.7923 23.7031 21.5158 23.2322 22.12 22.629C22.7242 22.0257 23.1958 21.3033 23.5048 20.5079C23.8553 19.5765 24.0432 18.5944 24.0632 17.5991C24.1205 16.319 24.1378 15.9131 24.1378 12.6623C24.1378 9.41146 24.1378 8.99895 24.0632 7.7255C24.0477 6.71721 23.8578 5.71918 23.5021 4.7754V4.7754ZM21.8788 17.4594C21.8702 18.2262 21.73 18.986 21.4643 19.7055C21.2642 20.223 20.9578 20.6929 20.5648 21.085C20.1719 21.4771 19.7011 21.7828 19.1827 21.9823C18.47 22.2464 17.7171 22.3864 16.957 22.3962C15.6909 22.4547 15.3337 22.4693 12.0872 22.4693C8.83795 22.4693 8.5061 22.4693 7.216 22.3962C6.45624 22.3869 5.70378 22.2469 4.99166 21.9823C4.47147 21.784 3.99877 21.4789 3.60413 21.0867C3.20949 20.6945 2.9017 20.224 2.70068 19.7055C2.43872 18.9937 2.29861 18.2429 2.2862 17.4846C2.22889 16.2205 2.21556 15.8639 2.21556 12.6224C2.21556 9.37952 2.21556 9.04819 2.2862 7.75877C2.29481 6.99233 2.435 6.23304 2.70068 5.51392C3.10716 4.46402 3.94013 3.63768 4.99166 3.23581C5.70413 2.97253 6.45637 2.83257 7.216 2.82197C8.48344 2.76476 8.83928 2.74879 12.0872 2.74879C15.3351 2.74879 15.6682 2.74879 16.957 2.82197C17.7172 2.83111 18.4701 2.9711 19.1827 3.23581C19.701 3.43578 20.1718 3.74174 20.5647 4.13406C20.9576 4.52638 21.2641 4.99639 21.4643 5.51392C21.7263 6.22576 21.8664 6.97654 21.8788 7.73481C21.9361 9.00028 21.9508 9.35557 21.9508 12.5984C21.9508 15.8399 21.9508 16.1886 21.8935 17.4607H21.8788V17.4594Z" fill="white"/>
</svg>
