<svg width="25" height="25" viewBox="0 0 25 25" fill="none" xmlns="http://www.w3.org/2000/svg">
<path d="M22.8045 0.642334H1.47118C1.11756 0.642334 0.778417 0.78281 0.528368 1.03286C0.27832 1.28291 0.137844 1.62205 0.137844 1.97567V23.309C0.137844 23.6626 0.27832 24.0018 0.528368 24.2518C0.778417 24.5019 1.11756 24.6423 1.47118 24.6423H22.8045C23.1581 24.6423 23.4973 24.5019 23.7473 24.2518C23.9974 24.0018 24.1378 23.6626 24.1378 23.309V1.97567C24.1378 1.62205 23.9974 1.28291 23.7473 1.03286C23.4973 0.78281 23.1581 0.642334 22.8045 0.642334V0.642334ZM7.25651 21.0917H3.69384V9.63833H7.25651V21.0917ZM5.47518 8.07433C4.92777 8.07433 4.40278 7.85688 4.01571 7.4698C3.62863 7.08273 3.41118 6.55774 3.41118 6.01033C3.41118 5.46293 3.62863 4.93794 4.01571 4.55086C4.40278 4.16379 4.92777 3.94633 5.47518 3.94633C6.02258 3.94633 6.54757 4.16379 6.93464 4.55086C7.32172 4.93794 7.53918 5.46293 7.53918 6.01033C7.53918 6.55774 7.32172 7.08273 6.93464 7.4698C6.54757 7.85688 6.02258 8.07433 5.47518 8.07433V8.07433ZM20.5885 21.0917H17.0298V15.5223C17.0298 14.1943 17.0058 12.4863 15.1792 12.4863C13.3258 12.4863 13.0445 13.9343 13.0445 15.429V21.093H9.48851V9.63967H12.9018V11.205H12.9512C13.4245 10.305 14.5872 9.35567 16.3165 9.35567C19.9218 9.35567 20.5872 11.7263 20.5872 14.8117V21.0917H20.5885Z" fill="white"/>
</svg>
