<svg width="32" height="43" viewBox="0 0 32 43" fill="none" xmlns="http://www.w3.org/2000/svg">
<path d="M19.8002 13.975C20.7835 13.975 21.5419 14.0833 22.0752 14.3C22.6085 14.5 23.0669 14.7167 23.4502 14.95C23.6502 15.0667 23.8085 15.1583 23.9252 15.225C24.0585 15.275 24.1835 15.3 24.3002 15.3C24.4669 15.3 24.5835 15.2083 24.6502 15.025C24.7335 14.8417 24.8002 14.5667 24.8502 14.2H25.4252C25.4085 14.5167 25.3835 14.9 25.3502 15.35C25.3335 15.7833 25.3169 16.3583 25.3002 17.075C25.3002 17.7917 25.3002 18.7333 25.3002 19.9H24.7252C24.6585 19.0333 24.4585 18.1917 24.1252 17.375C23.7919 16.5583 23.3169 15.8917 22.7002 15.375C22.1002 14.8417 21.3585 14.575 20.4752 14.575C19.6752 14.575 19.0169 14.8 18.5002 15.25C17.9835 15.7 17.7252 16.325 17.7252 17.125C17.7252 17.7917 17.8919 18.3667 18.2252 18.85C18.5585 19.3167 19.0419 19.775 19.6752 20.225C20.3252 20.675 21.1085 21.2167 22.0252 21.85C22.8252 22.3667 23.5419 22.8833 24.1752 23.4C24.8085 23.9167 25.3169 24.5 25.7002 25.15C26.0835 25.8 26.2752 26.575 26.2752 27.475C26.2752 28.575 25.9835 29.4833 25.4002 30.2C24.8335 30.9167 24.0835 31.4583 23.1502 31.825C22.2169 32.175 21.1919 32.35 20.0752 32.35C19.0419 32.35 18.2169 32.25 17.6002 32.05C16.9835 31.85 16.4669 31.6417 16.0502 31.425C15.6835 31.1917 15.4002 31.075 15.2002 31.075C15.0335 31.075 14.9085 31.1667 14.8252 31.35C14.7585 31.5333 14.7002 31.8083 14.6502 32.175H14.0752C14.1085 31.775 14.1252 31.3083 14.1252 30.775C14.1419 30.2417 14.1502 29.55 14.1502 28.7C14.1669 27.8333 14.1752 26.7417 14.1752 25.425H14.7502C14.8169 26.525 15.0002 27.5583 15.3002 28.525C15.6169 29.475 16.0919 30.2417 16.7252 30.825C17.3752 31.4083 18.2335 31.7 19.3002 31.7C19.8835 31.7 20.4002 31.6 20.8502 31.4C21.3169 31.1833 21.6919 30.8667 21.9752 30.45C22.2585 30.0333 22.4002 29.5167 22.4002 28.9C22.4002 28.2 22.2335 27.5917 21.9002 27.075C21.5835 26.5583 21.1419 26.075 20.5752 25.625C20.0252 25.175 19.3835 24.7167 18.6502 24.25C17.8669 23.7333 17.1335 23.2167 16.4502 22.7C15.7669 22.1833 15.2169 21.5917 14.8002 20.925C14.4002 20.2583 14.2002 19.4667 14.2002 18.55C14.2002 17.5 14.4585 16.6417 14.9752 15.975C15.5085 15.2917 16.2002 14.7917 17.0502 14.475C17.9169 14.1417 18.8335 13.975 19.8002 13.975Z" fill="white"/>
<path d="M23.8205 10.76V11.36C23.3805 11.52 22.9105 11.87 22.4105 12.41C21.9305 12.95 21.4805 13.79 21.0605 14.93L14.7305 32.06C14.5705 32.04 14.4005 32.03 14.2205 32.03C14.0405 32.03 13.8605 32.03 13.6805 32.03C13.5205 32.03 13.3505 32.03 13.1705 32.03C12.9905 32.03 12.8205 32.04 12.6605 32.06L5.01047 13.28C4.73047 12.56 4.42047 12.07 4.08047 11.81C3.74047 11.53 3.42047 11.38 3.12047 11.36V10.76C3.72047 10.78 4.42047 10.8 5.22047 10.82C6.04047 10.84 6.86047 10.85 7.68047 10.85C8.60047 10.85 9.46047 10.84 10.2605 10.82C11.0805 10.8 11.7405 10.78 12.2405 10.76V11.36C11.6005 11.38 11.1005 11.46 10.7405 11.6C10.3805 11.72 10.1805 11.96 10.1405 12.32C10.1005 12.66 10.2205 13.18 10.5005 13.88L15.9605 27.77L15.3305 28.52L19.4705 17.36C20.0105 15.86 20.2905 14.68 20.3105 13.82C20.3305 12.96 20.1205 12.34 19.6805 11.96C19.2405 11.58 18.6105 11.38 17.7905 11.36V10.76C18.4705 10.78 19.1105 10.8 19.7105 10.82C20.3105 10.84 20.9205 10.85 21.5405 10.85C21.9805 10.85 22.3905 10.84 22.7705 10.82C23.1705 10.8 23.5205 10.78 23.8205 10.76Z" fill="white"/>
</svg>
