<svg width="34" height="23" viewBox="0 0 34 23" fill="none" xmlns="http://www.w3.org/2000/svg">
<path d="M30.2898 0.477783H7.27371C5.46037 0.477783 3.98569 1.7296 3.98569 3.26889V10.2467H7.27371V6.06L17.7954 12.7587C18.08 12.9396 18.4261 13.0374 18.7818 13.0374C19.1374 13.0374 19.4835 12.9396 19.7682 12.7587L30.2898 6.06V18.62H17.1378V21.4111H30.2898C32.1032 21.4111 33.5778 20.1593 33.5778 18.62V3.26889C33.5778 1.7296 32.1032 0.477783 30.2898 0.477783ZM18.7818 9.89777L8.36862 3.26889H29.1949L18.7818 9.89777Z" fill="white"/>
<path d="M0.697678 11.6423H12.2057V14.4334H0.697678V11.6423ZM3.98569 15.829H13.8497V18.6201H3.98569V15.829ZM8.91772 20.0157H15.4937V22.8068H8.91772V20.0157Z" fill="white"/>
</svg>
