<svg width="40" height="26" viewBox="0 0 40 26" fill="none" xmlns="http://www.w3.org/2000/svg">
<rect x="0.965134" y="0.723511" width="38.0697" height="24.2929" rx="1" fill="#454545"/>
<rect x="0.965134" y="0.723511" width="38.0697" height="2.1167" rx="0.5" fill="#C2C2C2"/>
<path d="M2.65454 4.5373C2.53182 4.41873 2.53182 4.22648 2.65454 4.10791C2.77727 3.98934 2.97624 3.98934 3.09897 4.10791L4.81512 5.76599C4.93785 5.88456 4.93785 6.07681 4.81512 6.19538C4.6924 6.31395 4.49342 6.31395 4.3707 6.19538L2.65454 4.5373Z" fill="#C2C2C2"/>
<path d="M4.81512 6.17686C4.93785 6.05829 4.93785 5.86605 4.81512 5.74748C4.6924 5.6289 4.49342 5.6289 4.3707 5.74748L2.65455 7.40556C2.53182 7.52413 2.53182 7.71637 2.65455 7.83494C2.77727 7.95352 2.97625 7.95352 3.09897 7.83494L4.81512 6.17686Z" fill="#C2C2C2"/>
</svg>
